<svg width="121" height="121" viewBox="0 0 121 121" fill="none" xmlns="http://www.w3.org/2000/svg">
<rect y="0.791626" width="120.572" height="119.417" rx="20.8449" fill="#212638"/>
<path d="M25.6427 43.8312L30.5586 33.2024H87.8214L93.2687 43.8312H25.6427Z" fill="white"/>
<path d="M41.0545 26.0279V29.4823H51.6834V22.0421L41.0545 26.0279Z" fill="white"/>
<path d="M51.6834 47.9499H41.0545V90.8638H34.5444V98.1711H58.725V90.8638H51.6834V47.9499Z" fill="white"/>
<path d="M83.3041 49.8099L84.9847 46.7869L86.8169 49.8099L98.5831 68.5432L85.0313 76.1163L71.7453 68.5432L83.3041 49.8099Z" fill="white"/>
<path d="M85.0313 79.8364L73.4725 73.5919L84.2164 89.6461C84.6057 90.2278 85.4603 90.2301 85.8527 89.6504L96.7231 73.5919L85.0313 79.8364Z" fill="white"/>
<path d="M85.0311 75.8734V49.0788V46.8295L98.6269 68.5297L85.0311 75.8734Z" fill="#E2E2E2"/>
<path d="M85.1294 90.5073V79.8887L96.5419 73.3389L85.1294 90.5073Z" fill="#E2E2E2"/>
</svg>
