<svg width="252" height="103" viewBox="0 0 252 103" fill="none" xmlns="http://www.w3.org/2000/svg">
<path d="M17.17 42.63V21.42H34.18V25.62H38.38V38.44H34.18V42.64H17.17V42.63ZM21.6 29.81H33.97V25.84H21.6V29.81ZM21.6 38.21H33.97V34.24H21.6V38.21ZM49.64 42.63V38.43H45.44V21.42H49.86V38.21H62.23V21.42H66.65V38.43H62.45V42.63H49.63H49.64ZM101.68 42.63V21.42H106.1V38.21H122.89V42.63H101.68ZM128.94 42.63V21.42H145.95V25.62H150.15V38.44H145.95V42.64H128.94V42.63ZM133.36 38.21H145.73V25.84H133.36V38.21ZM156.59 42.63V21.42H177.8V25.84H161.01V29.81H173.6V34.23H161.01V38.2H177.8V42.62H156.59V42.63ZM185.1 42.63V21.42H202.11V25.62H206.31V30.04H202.11V38.21H206.31V42.63H201.89V38.43H197.69V34.23H189.52V42.63H185.1ZM189.53 29.81H201.9V25.84H189.53V29.81ZM213.62 42.63V38.21H230.41V34.24H217.82V30.04H213.62V25.62H217.82V21.42H234.83V25.84H218.04V29.81H230.63V34.01H234.83V38.43H230.63V42.63H213.62ZM17.17 80.85V59.64H34.18V63.84H38.38V76.66H34.18V80.86H17.17V80.85ZM21.6 68.03H33.97V64.06H21.6V68.03ZM21.6 76.43H33.97V72.46H21.6V76.43ZM45.44 80.85V63.84H49.64V59.64H62.46V63.84H66.66V80.85H62.24V72.45H49.87V80.85H45.45H45.44ZM49.86 68.03H62.23V64.06H49.86V68.03ZM73.95 80.85V76.43H90.74V72.46H78.15V68.26H73.95V63.84H78.15V59.64H95.16V64.06H78.37V68.03H90.96V72.23H95.16V76.65H90.96V80.85H73.95ZM101.68 80.85V59.64H122.89V64.06H106.1V68.03H118.69V72.45H106.1V76.42H122.89V80.84H101.68V80.85ZM133.14 80.85V76.65H128.94V63.83H133.14V59.63H145.96V63.83H150.16V68.25H145.74V64.05H133.37V76.42H145.74V72.22H150.16V76.64H145.96V80.84H133.14V80.85ZM156.59 80.85V63.84H160.79V59.64H173.61V63.84H177.81V80.85H173.39V72.45H161.02V80.85H156.6H156.59ZM161.01 68.03H173.38V64.06H161.01V68.03ZM185.1 80.85V63.84H189.3V59.64H202.12V63.84H206.32V80.85H201.9V64.06H197.93V76.65H193.51V64.06H189.54V80.85H185.12H185.1ZM213.62 80.85V59.64H230.63V63.84H234.83V68.26H230.63V72.46H218.04V80.86H213.62V80.85ZM218.04 68.03H230.41V64.06H218.04V68.03ZM95.16 25.84V21.42H73.95V25.84H82.35V38.21H73.95V42.63H95.16V38.21H86.76V25.84H95.16Z" fill="white"/>
</svg>
