<svg width="380" height="38" viewBox="0 0 380 38" fill="none" xmlns="http://www.w3.org/2000/svg">
<g style="mix-blend-mode:screen">
<path d="M13.0191 22.032V12.432H8.21913V9.904H20.3471V12.432H15.5471V22.032H13.0191ZM22.5004 22.032V9.904H25.0284V14.704H32.1004V9.904H34.6284V22.032H32.1004V17.232H25.0284V22.032H22.5004ZM37.5473 22.032V9.904H49.6753V12.432H40.0753V14.704H47.2753V17.232H40.0753V19.504H49.6753V22.032H37.5473ZM60.541 22.032V19.632H58.141V12.304H60.541V9.904H70.269V12.432H60.669V19.504H67.741V17.232H65.341V14.704H70.269V19.632H67.869V22.032H60.541ZM75.3878 14.704H82.4598V12.432H75.3878V14.704ZM72.8598 22.032V9.904H82.5878V12.304H84.9878V14.832H82.5878V19.504H84.9878V22.032H82.4598V19.632H80.0598V17.232H75.3878V22.032H72.8598ZM90.169 14.704H97.241V12.432H90.169V14.704ZM87.641 22.032V12.304H90.041V9.904H97.369V12.304H99.769V22.032H97.241V17.232H90.169V22.032H87.641ZM105.2 14.704H112.272V12.432H105.2V14.704ZM102.672 22.032V9.904H112.4V12.304H114.8V14.832H112.4V17.232H105.2V22.032H102.672ZM116.766 22.032V9.904H119.294V14.704H126.366V9.904H128.894V22.032H126.366V17.232H119.294V22.032H116.766Z" fill="url(#paint0_linear_1611_436)"/>
</g>
<g style="mix-blend-mode:screen">
<path d="M142.919 14.704H149.991V12.432H142.919V14.704ZM142.919 19.504H149.991V17.232H142.919V19.504ZM140.391 22.032V9.904H150.119V12.304H152.519V19.632H150.119V22.032H140.391ZM157.666 22.032V19.632H155.266V9.904H157.794V19.504H164.866V9.904H167.394V19.632H164.994V22.032H157.666ZM170.297 22.032V9.904H172.825V22.032H170.297ZM175.735 22.032V9.904H178.263V19.504H187.863V22.032H175.735ZM191.872 19.504H198.944V12.432H191.872V19.504ZM189.344 22.032V9.904H199.072V12.304H201.472V19.632H199.072V22.032H189.344ZM204.219 22.032V9.904H216.347V12.432H206.747V14.704H213.947V17.232H206.747V19.504H216.347V22.032H204.219ZM221.044 14.704H228.116V12.432H221.044V14.704ZM218.516 22.032V9.904H228.244V12.304H230.644V14.832H228.244V19.504H230.644V22.032H228.116V19.632H225.716V17.232H221.044V22.032H218.516ZM233.297 22.032V19.504H242.897V17.232H235.697V14.832H233.297V12.304H235.697V9.904H245.425V12.432H235.825V14.704H243.025V17.104H245.425V19.632H243.025V22.032H233.297ZM256.7 14.704H263.772V12.432H256.7V14.704ZM256.7 19.504H263.772V17.232H256.7V19.504ZM254.172 22.032V9.904H263.9V12.304H266.3V19.632H263.9V22.032H254.172ZM271.575 14.704H278.647V12.432H271.575V14.704ZM269.047 22.032V12.304H271.447V9.904H278.775V12.304H281.175V22.032H278.647V17.232H271.575V22.032H269.047ZM284.079 22.032V19.504H293.679V17.232H286.479V14.832H284.079V12.304H286.479V9.904H296.207V12.432H286.607V14.704H293.807V17.104H296.207V19.632H293.807V22.032H284.079ZM298.657 22.032V9.904H310.785V12.432H301.185V14.704H308.385V17.232H301.185V19.504H310.785V22.032H298.657ZM315.354 22.032V19.632H312.954V12.304H315.354V9.904H322.682V12.304H325.082V14.832H322.554V12.432H315.482V19.504H322.554V17.104H325.082V19.632H322.682V22.032H315.354ZM330.013 14.704H337.085V12.432H330.013V14.704ZM327.485 22.032V12.304H329.885V9.904H337.213V12.304H339.613V22.032H337.085V17.232H330.013V22.032H327.485ZM342.516 22.032V12.304H344.916V9.904H352.244V12.304H354.644V22.032H352.116V12.432H349.844V19.632H347.316V12.432H345.044V22.032H342.516ZM360.075 14.704H367.147V12.432H360.075V14.704ZM357.547 22.032V9.904H367.275V12.304H369.675V14.832H367.275V17.232H360.075V22.032H357.547Z" fill="white"/>
</g>
<defs>
<linearGradient id="paint0_linear_1611_436" x1="8" y1="19" x2="132" y2="19" gradientUnits="userSpaceOnUse">
<stop stop-color="#FEEEC5"/>
<stop offset="1" stop-color="#FC86B8"/>
</linearGradient>
</defs>
</svg>
